<svg xmlns="http://www.w3.org/2000/svg" viewBox="0 0 1024 1024">
  <defs>
    <linearGradient id="bg" x1="180" y1="120" x2="860" y2="930" gradientUnits="userSpaceOnUse">
      <stop offset="0" stop-color="#1f9f83"/>
      <stop offset="1" stop-color="#0b5f55"/>
    </linearGradient>
    <linearGradient id="paper" x1="235" y1="215" x2="790" y2="790" gradientUnits="userSpaceOnUse">
      <stop offset="0" stop-color="#ffffff"/>
      <stop offset="1" stop-color="#eef4f1"/>
    </linearGradient>
    <filter id="shadow" x="-20%" y="-20%" width="140%" height="150%">
      <feDropShadow dx="0" dy="30" stdDeviation="34" flood-color="#043d38" flood-opacity="0.32"/>
    </filter>
    <filter id="paperShadow" x="-20%" y="-20%" width="140%" height="150%">
      <feDropShadow dx="0" dy="18" stdDeviation="22" flood-color="#043d38" flood-opacity="0.24"/>
    </filter>
  </defs>

  <rect x="0" y="0" width="1024" height="1024" fill="url(#bg)"/>
  <rect x="64" y="64" width="896" height="896" rx="206" fill="url(#bg)" filter="url(#shadow)" opacity="0.72"/>
  <path d="M210 250c0-46 37-83 83-83h438c46 0 83 37 83 83v514c0 46-37 83-83 83H293c-46 0-83-37-83-83V250z" fill="url(#paper)" filter="url(#paperShadow)"/>

  <rect x="268" y="245" width="488" height="260" rx="28" fill="#ffffff"/>
  <g fill="#101515">
    <rect x="300" y="287" width="16" height="158" rx="3"/>
    <rect x="329" y="287" width="8" height="158" rx="2"/>
    <rect x="357" y="287" width="22" height="158" rx="3"/>
    <rect x="391" y="287" width="10" height="158" rx="2"/>
    <rect x="418" y="287" width="16" height="158" rx="3"/>
    <rect x="452" y="287" width="30" height="158" rx="3"/>
    <rect x="496" y="287" width="9" height="158" rx="2"/>
    <rect x="522" y="287" width="20" height="158" rx="3"/>
    <rect x="557" y="287" width="12" height="158" rx="2"/>
    <rect x="588" y="287" width="27" height="158" rx="3"/>
    <rect x="630" y="287" width="8" height="158" rx="2"/>
    <rect x="657" y="287" width="18" height="158" rx="3"/>
    <rect x="694" y="287" width="28" height="158" rx="3"/>
  </g>

  <text x="512" y="506" text-anchor="middle" font-family="Arial, Helvetica, sans-serif" font-size="48" font-weight="700" fill="#0f1717">FNSKU</text>

  <g transform="translate(282 584)">
    <rect x="0" y="0" width="460" height="98" rx="30" fill="#dcebe6"/>
    <circle cx="72" cy="49" r="48" fill="#0b6f60"/>
    <text x="72" y="69" text-anchor="middle" font-family="Arial, Helvetica, sans-serif" font-size="64" font-weight="800" fill="#ffffff">D</text>
    <text x="150" y="61" font-family="Arial, Helvetica, sans-serif" font-size="42" font-weight="800" fill="#0b5f55">Label</text>
  </g>

  <g fill="#0b5f55" opacity="0.95">
    <rect x="300" y="723" width="424" height="18" rx="9"/>
    <rect x="300" y="761" width="278" height="18" rx="9"/>
  </g>
</svg>
